<svg width="112" height="30" viewBox="0 0 112 30" fill="none" xmlns="http://www.w3.org/2000/svg">
<path d="M0.528409 0.90909H8.11364L16.125 20.4545H16.4659L24.4773 0.90909H32.0625V30H26.0966V11.0653H25.8551L18.3267 29.858H14.2642L6.7358 10.9943H6.49432V30H0.528409V0.90909ZM37.13 30V0.90909H56.7322V5.98011H43.2805V12.9119H55.7237V17.983H43.2805V24.929H56.7891V30H37.13ZM71.9347 30H61.6222V0.90909H72.0199C74.946 0.90909 77.465 1.49148 79.5767 2.65625C81.6884 3.81155 83.3125 5.47348 84.4489 7.64205C85.5947 9.81061 86.1676 12.4053 86.1676 15.4261C86.1676 18.4564 85.5947 21.0606 84.4489 23.2386C83.3125 25.4167 81.679 27.0881 79.5483 28.2528C77.4271 29.4176 74.8892 30 71.9347 30ZM67.7727 24.7301H71.679C73.4972 24.7301 75.0265 24.4081 76.267 23.7642C77.517 23.1108 78.4545 22.1023 79.0795 20.7386C79.714 19.3655 80.0312 17.5947 80.0312 15.4261C80.0312 13.2765 79.714 11.5199 79.0795 10.1562C78.4545 8.79261 77.5218 7.78883 76.2812 7.14489C75.0407 6.50095 73.5114 6.17898 71.6932 6.17898H67.7727V24.7301Z" fill="white"/>
<path d="M99.2464 25.5682V5.45455H104.332V25.5682H99.2464ZM91.7322 18.054V12.9688H111.846V18.054H91.7322Z" fill="#FF0000"/>
</svg>
